<svg id="Layer_1" data-name="Layer 1" xmlns="http://www.w3.org/2000/svg" viewBox="0 0 216.33 252.28"><defs><style>.cls-1{fill:#208340;}</style></defs><title>Grasshopper3Db</title><path class="cls-1" d="M48.26,250.79s-7.06,3.92-4-1,12.81-18.91,12.81-18.91-.26-2.36,1.22-3.58a48.84,48.84,0,0,0,4.62-5.4l24.92-50.29s1.94-3.07,2-4.12,2-5.55,7.14-7.12S108,153,108,153s24.23-24.62,29.85-26.71,5.44-8.5,3.18-6.32a77.26,77.26,0,0,1-15.17,10.19c-6.1,3.06-13.33,9.42-13.33,9.42s-7.58,4.18-12.46,4.53a66.82,66.82,0,0,1-11.68-.52c-.44-.09-.53-4.45,1.65-6.45s5.49-3.58,6.1-7.06,3.75-10.37,5.93-11.42,4.4-10.41,14.21-16.82c4.83-3.92-14.38-1.31-14.38-1.31l-37.13.87s-4.36,1.75-7.76,1.14-6.54,2.26-6.54,2.26-7,7.24-10.93,9.72-15.3,10.72-17,12.94-6.93,2.75-6.93,2.75L.15,129.29s-.92-2.22,1.83-2,9.8,1.44,11.11.53,14.64-7.33,17.26-10.33,9.54-6,13.2-10.33,6.93-9.54,11.37-10.33,21.57.52,25.63,0S96.76,94.78,98.33,94s9.54-1.57,10.72-1.57h15.68s9.81-9,12.42-12.81,11.68-12.21,13.95-12.38S154,64.32,154,64.32s-1.35-7.71-3.45-9.46c-.28-4.46,3.84-2.18,3.84-2.18s2.16,2.82,3.07,3.21,1.77.32,1.37-.92-2.41-3.33-2.61-4.64,1.63-3.92,3.33-1.57.46,4.06.46,4.06-.78,3,.79,4,2.41.65,2.41-.13-.78-2,0-2.94,4.06-2.42,4.91-1.57,2.41-.07,2.81-.13a5,5,0,0,1,1.57.45S171.67,5.23,168.14,0c4.38.52,4.38,7.45,4.38,7.45S174.93,49,174.8,51.77c0,2.27.74,3.27,2.14,2.79s8.58-15,38.52-24.36c2,1.57,0,2.29,0,2.29s-22.32,7.68-37.13,22.94c-1,1.53,2.92,8.06,2.92,8.06s3.93,9-6.1,10.46a4.42,4.42,0,0,0,.61,7.41c2.44,1.13,3.05,2,5.75,2.35s8.72.7,12.21,2.35c1.74-2.52,5.84-2.35,5.84-2.35l7.4-.35.88-2.52,4.27,3s.26,2.44-1.83,2.26-4.1-1-5.76.09a7.65,7.65,0,0,0-2.79,3.31c-.17.52-1,3.23-7.67,1.57s-14-6.19-21.78-4.88-6.76,7.36-5.71,17.69,1.7,24.19.91,27.06a134,134,0,0,0,12.81,13.34,18.88,18.88,0,0,1,5.36,6.14,28.29,28.29,0,0,0,6.54,8.3c7.6,6.53,2.28,9.33-1.89,3.66-.78-1.05-6-6.47-6-6.47s-4.19-7.71-16.08-18.56-6.15-18.83-6.15-18.83,2.75-8.89.13-11.5-5.36-.13-5.36-.13-6.49,15.38-12.42,21.48-11.67,12.73-16.21,15-22,15-22,15l-5,4.71A5,5,0,0,1,99,169,12.05,12.05,0,0,1,92,171s-23.49,49.59-26.89,53.78-1.83,7.32-1.83,7.32-2.09-.66-3.14.65S48.26,250.79,48.26,250.79Z"/></svg>