<svg height="511pt" viewBox="-59 0 511 511.9996" width="511pt" xmlns="http://www.w3.org/2000/svg"><path d="m389.890625 451.996094-106.140625-150.554688 54.277344-45.636718c3.683594-3.09375 6.035156-7.484376 6.574218-12.265626l7.894532-70.019531c.457031-4.078125-.429688-8.191406-2.53125-11.71875l-91-152.636719c-4.433594-7.4375-13.378906-10.878906-21.652344-8.332031l-164.894531 50.75c-6.914063 2.128907-11.992188 8.039063-13.050781 15.195313l-58.660157 395.804687c-1.523437 10.257813 5.5625 19.808594 15.820313 21.328125l106.609375 15.800782c4.925781.730468 9.941406-.527344 13.941406-3.492188 4-2.96875 6.65625-7.402344 7.386719-12.328125l13.28125-89.625 166.582031 114.433594c3.207031 2.203125 6.921875 3.300781 10.628906 3.300781 4.042969 0 8.078125-1.300781 11.441407-3.886719l39.582031-30.40625c7.988281-6.136719 9.710937-17.480469 3.910156-25.710937zm0 0" fill="#88ffed"/><path d="m389.890625 451.996094-106.140625-150.554688 54.277344-45.636718c3.683594-3.09375 6.035156-7.484376 6.574218-12.265626l7.894532-70.019531c.457031-4.078125-.429688-8.191406-2.53125-11.71875l-91-152.636719c-4.433594-7.4375-13.378906-10.878906-21.652344-8.332031l-37.730469 11.613281-41.835937 381.820313 166.582031 114.433594c3.207031 2.203125 6.921875 3.300781 10.628906 3.300781 4.042969 0 8.078125-1.300781 11.441407-3.886719l39.582031-30.40625c7.988281-6.136719 9.710937-17.480469 3.910156-25.710937zm0 0" fill="#104a5c"/><path d="m283.75 301.441406 54.277344-45.636718c3.683594-3.09375 6.035156-7.484376 6.574218-12.265626l7.894532-70.019531c.457031-4.078125-.429688-8.191406-2.53125-11.71875l-91-152.636719c-4.433594-7.4375-13.378906-10.878906-21.652344-8.332031l-164.894531 50.75c-6.914063 2.128907-11.992188 8.039063-13.050781 15.195313l-29.277344 197.539062 254.03125 37.648438zm0 0" fill="#15708a"/><path d="m349.964844 161.800781-91-152.636719c-4.433594-7.4375-13.378906-10.878906-21.652344-8.332031l-37.730469 11.613281-29.863281 272.566407 114.402344 16.957031-.371094-.527344 54.277344-45.632812c3.679687-3.097656 6.035156-7.488282 6.574218-12.269532l7.890626-70.015624c.460937-4.082032-.425782-8.195313-2.527344-11.722657zm0 0" fill="#15708a"/><path d="m258.964844 9.164062c-4.433594-7.4375-13.378906-10.878906-21.652344-8.332031l-37.730469 11.613281-29.863281 272.566407 180.046875-123.539063zm0 0" fill="#88ffed"/><path d="m186.070312 135.757812-16.351562 149.253907 102.277344-70.175781zm0 0" fill="#14b8b3"/></svg>