<svg id="Layer_1" data-name="Layer 1" xmlns="http://www.w3.org/2000/svg" viewBox="0 0 484.97 365.35"><defs><style>.cls-1{fill:#1d1d1b;}</style></defs><title>Rhino3Db</title><path class="cls-1" d="M9.64,191c53.62-17.16,115.33.19,162.45,86.35,4.24,8.28,9.71,6.21,9.41-2.22,1-8.72-.34-45.33-23.21-77.74-.77-1.69.05-2.6,1.28-3.83,5.37-4,45.05-12.42,89.41-44.16C252.41,147,267.22,140,264.75,119c-7.39-51.91-48.79-87.1-60.33-94.19s-10.25,5.32-10,7.19c-2.07,40.12-14.12,99.07-57,139.29-15.32-4.34-20.74-15.18-20.74-15.18s57.87-75.51,42.88-135.84c-3.94-16.95-8.57-23-27.5-19.12s-63.88,18-63.88,18-7,2.66-1.48,9.76S98.75,62.83,77.06,137.74c-19.71-6.7-63.09-15-67.42-3.15S-9.69,190.39,9.64,191Z"/><path class="cls-1" d="M473,171.46c-12.13,11.53-79.26,61.81-104.69,68.9s-29.87-5.76-26.17-8.87c2.24-2.25,58.8-63.38-4-30.46-23,8.48-45.49-10.25-50.22-27-10-31.91-9.66-38.25-32.33-18.73-12.23,10.06-33.91,20.9-42.19,23.86-24.85,5.91-34.7,33.71-14.59,36.47s31-.39,25.53,5.37-13.61,10.95-4.44,16,26.68,17.45,27.68,18.63,9.14,2.22,11.51-3.69.29-7.54-1.34-8.43.15-3.55,4-3.11,13-3.1,15.23-4.73,28.24-5.91,34.6,3.11c-7.22,2.25-9.32-2.42-19.52,1.18-5.59,2.16-19.18,3.88-25.58,18.34-4.78,10.79-6.56,33.07-26.07,26.76s-39.58-12.27-36.48-31.94,1.78-32.38-9.17-33.12c-.59,3.1,2.67,21.29,0,36.37-4.43,11.24-5.93,18,2.8,24.84s74,37.56,112.24,78.57c14.64,14.89,22-3.6,11.24-12.17-3-3.26-16.86-15.68-16.56-20s8.28,4,11.24,7.09c-8-16.12,9.46-36.67,28.09-13.45,7.59,7.34,2.27,24.69-4.24,29.42,7.13-7.13-5.27-24.89-15.18-15-5.12,4.93,9,16.07,12.13,18.83s14.39-6.61,18.33-13.11c2.9-4,7.08-7.45,13.11-33.52,1.93-6.75,4.42-9.2,10.45-15.23s94.05-79.8,103.8-110.85C487.83,165.64,485.07,159.92,473,171.46ZM243.46,245.29c-1.18-1.28-4.34-4.73-13.7-9.95-2.17-5.72,2.86-6.41,5.42-6.31s12.52,7,15.28,12C251.15,247.17,244.64,246.57,243.46,245.29Z"/></svg>